<svg width="80" height="80" viewBox="0 0 80 80" fill="none" xmlns="http://www.w3.org/2000/svg">
    <path opacity="0.2"
        d="M58 19.1992H22C19.8 19.1992 18 20.9992 18 23.1992V59.1992C18 61.3992 19.8 63.1992 22 63.1992H42.72C41.76 61.2792 41.2 59.0792 41.2 56.7992C41.2 48.8392 47.64 42.3992 55.6 42.3992C57.92 42.3992 60.08 42.9192 62 43.9192V23.1992C62 20.9992 60.2 19.1992 58 19.1992ZM43.4 37.2792L34.48 48.1592L32.8 46.5192V46.4792V46.5192L31.12 48.1592V44.8792L41.52 38.1992L30 43.7992L27 40.9992V40.6392L43.4 36.8792V37.2792ZM54.8 29.9992H25.2C24.52 29.9992 24 29.4792 24 28.7992C24 28.1192 24.52 27.5992 25.2 27.5992H54.8C55.48 27.5992 56 28.1192 56 28.7992C56 29.4792 55.48 29.9992 54.8 29.9992Z"
        fill="#D5E970" />
    <path opacity="0.2"
        d="M8 70C8 71.0609 11.3714 72.0783 17.3726 72.8284C23.3737 73.5786 31.5131 74 40 74C48.4869 74 56.6262 73.5786 62.6274 72.8284C68.6286 72.0783 72 71.0609 72 70C72 68.9391 68.6286 67.9217 62.6274 67.1716C56.6262 66.4214 48.4869 66 40 66C31.5131 66 23.3737 66.4214 17.3726 67.1716C11.3714 67.9217 8 68.9391 8 70Z"
        fill="#D5E970" />
    <path opacity="0.5"
        d="M69.1198 59.8404C69.1198 60.5204 69.6398 61.0404 70.3198 61.0404C70.9998 61.0404 71.5198 60.5204 71.5198 59.8404C71.5198 59.1604 70.9998 58.6404 70.3198 58.6404C69.6398 58.6404 69.1198 59.2004 69.1198 59.8404ZM72.3998 65.0004C70.8798 65.4004 70.5598 65.7204 70.1998 67.2004C69.7998 65.6804 69.4798 65.3604 67.9998 65.0004C69.4798 64.6004 69.8398 64.2804 70.1998 62.8004C70.5598 64.2804 70.8798 64.6404 72.3998 65.0004ZM12.5998 16.0404C10.6398 16.5604 10.2398 16.9604 9.71984 18.9204C9.19984 16.9604 8.79984 16.5604 6.83984 16.0404C8.79984 15.5204 9.19984 15.0804 9.71984 13.1604C10.1998 15.1204 10.6398 15.5204 12.5998 16.0404ZM70.9998 15.9604C69.7998 16.2804 69.5598 16.5204 69.2398 17.7204C68.9198 16.5204 68.6798 16.2804 67.4798 15.9604C68.6798 15.6404 68.9198 15.4004 69.2398 14.2004C69.5198 15.4004 69.7998 15.6404 70.9998 15.9604ZM70.1598 11.0004C67.0398 11.8004 66.3998 12.4804 65.5598 15.6004C64.7598 12.4804 64.0798 11.8404 60.9598 11.0004C64.0798 10.2004 64.7198 9.52039 65.5598 6.40039C66.3598 9.48039 67.0398 10.1604 70.1598 11.0004ZM55.5998 68.4004C49.1998 68.4004 43.9998 63.2004 43.9998 56.8004C43.9998 50.4004 49.1998 45.2004 55.5998 45.2004C61.9998 45.2004 67.1998 50.4004 67.1998 56.8004C67.1998 63.2004 61.9998 68.4004 55.5998 68.4004ZM55.5998 47.6004C50.5198 47.6004 46.3998 51.7204 46.3998 56.8004C46.3998 61.8804 50.5198 66.0004 55.5998 66.0004C60.6798 66.0004 64.7998 61.8804 64.7998 56.8004C64.7998 51.7204 60.6798 47.6004 55.5998 47.6004Z"
        fill="#D5E970" />
    <path opacity="0.5"
        d="M61.2004 58H55.6004C54.9204 58 54.4004 57.48 54.4004 56.8V51.2C54.4004 50.52 54.9204 50 55.6004 50C56.2804 50 56.8004 50.52 56.8004 51.2V55.6H61.2004C61.8804 55.6 62.4004 56.12 62.4004 56.8C62.4004 57.48 61.8804 58 61.2004 58Z"
        fill="#D5E970" />
    <path opacity="0.5"
        d="M41.4008 68.4H22.0008C16.9208 68.4 12.8008 64.28 12.8008 59.2V23.2C12.8008 18.12 16.9208 14 22.0008 14H58.0008C63.0808 14 67.2008 18.12 67.2008 23.2V42.6C67.2008 43.28 66.6808 43.8 66.0008 43.8C65.3208 43.8 64.8008 43.28 64.8008 42.6V23.2C64.8008 19.44 61.7608 16.4 58.0008 16.4H22.0008C18.2408 16.4 15.2008 19.44 15.2008 23.2V59.2C15.2008 62.96 18.2408 66 22.0008 66H41.4008C42.0808 66 42.6008 66.52 42.6008 67.2C42.6008 67.88 42.0808 68.4 41.4008 68.4Z"
        fill="#D5E970" />
</svg>