<svg width="17" height="16" viewBox="0 0 17 16" fill="none" xmlns="http://www.w3.org/2000/svg">
<g id="Frame">
<path id="Vector" d="M13.2498 11.3498L15.3998 13.4998C15.5998 13.6998 15.5998 13.9998 15.3998 14.1998L14.6998 14.8998C14.4998 15.0998 14.1998 15.0998 13.9998 14.8998L11.8998 12.7998C10.7998 13.5998 9.4998 14.0498 8.0498 14.0498C4.4498 14.0498 1.5498 11.1498 1.5498 7.5498C1.5498 3.9498 4.4498 1.0498 8.0498 1.0498C11.6498 1.0498 14.5498 3.9498 14.5498 7.5498C14.4998 8.9498 14.0498 10.2498 13.2498 11.3498ZM7.9998 12.9998C11.0498 12.9998 13.4998 10.5498 13.4998 7.4998C13.4998 4.4498 11.0498 1.9998 7.9998 1.9998C4.9498 1.9998 2.4998 4.4498 2.4998 7.4998C2.4998 10.5498 4.9498 12.9998 7.9998 12.9998Z" fill="white" fill-opacity="0.8"/>
</g>
</svg>
