<svg width="20" height="20" fill='rgba(255,255,255,0.8)' viewBox="0 0 20 20"  xmlns="http://www.w3.org/2000/svg">
<g id="Frame">
<path id="Vector" d="M15.9375 14.1875L18.625 16.875C18.875 17.125 18.875 17.5 18.625 17.75L17.75 18.625C17.5 18.875 17.125 18.875 16.875 18.625L14.25 16C12.875 17 11.25 17.5625 9.4375 17.5625C4.9375 17.5625 1.3125 13.9375 1.3125 9.4375C1.3125 4.9375 4.9375 1.3125 9.4375 1.3125C13.9375 1.3125 17.5625 4.9375 17.5625 9.4375C17.5 11.1875 16.9375 12.8125 15.9375 14.1875ZM9.375 16.25C13.1875 16.25 16.25 13.1875 16.25 9.375C16.25 5.5625 13.1875 2.5 9.375 2.5C5.5625 2.5 2.5 5.5625 2.5 9.375C2.5 13.1875 5.5625 16.25 9.375 16.25Z"/>
</g>
</svg>
