<svg width="16" height="16" viewBox="0 0 16 16" fill="none" xmlns="http://www.w3.org/2000/svg">
<g id="Frame" opacity="0.65" clip-path="url(#clip0_525_2567)">
<path id="Vector" d="M8 14.6667C11.682 14.6667 14.6667 11.682 14.6667 8C14.6667 4.318 11.682 1.33333 8 1.33333C4.318 1.33333 1.33333 4.318 1.33333 8C1.33333 11.682 4.318 14.6667 8 14.6667ZM8 16C3.582 16 0 12.418 0 8C0 3.582 3.582 0 8 0C12.418 0 16 3.582 16 8C16 12.418 12.418 16 8 16Z" fill="rgb(78, 252, 199)"/>
<path id="Vector 632" d="M5 8L7.5 10.5L12 6" stroke="rgb(78, 252, 199)" stroke-width="1.3"/>
</g>
<defs>
<clipPath id="clip0_525_2567">
<rect width="16" height="16" fill="rgb(78, 252, 199)"/>
</clipPath>
</defs>
</svg>
