<svg width="36" height="36" viewBox="0 0 36 36" fill="none" xmlns="http://www.w3.org/2000/svg">
    <rect x="0.800049" width="36" height="36" rx="18" fill="#D8346F" />
    <path
        d="M14.1651 24.8875C14.5347 24.8875 14.8891 25.0343 15.1504 25.2956C15.4117 25.5569 15.5586 25.9113 15.5586 26.2809C15.5586 26.6505 15.4117 27.0049 15.1504 27.2662C14.8891 27.5275 14.5347 27.6743 14.1651 27.6743C13.7956 27.6743 13.4412 27.5275 13.1798 27.2662C12.9185 27.0049 12.7717 26.6505 12.7717 26.2809C12.7717 25.9113 12.9185 25.5569 13.1798 25.2956C13.4412 25.0343 13.7956 24.8875 14.1651 24.8875ZM24.1993 24.8875C24.386 24.8817 24.5718 24.9135 24.7459 24.9809C24.9201 25.0483 25.0788 25.15 25.2129 25.28C25.3469 25.4099 25.4535 25.5655 25.5263 25.7374C25.5991 25.9094 25.6366 26.0942 25.6366 26.2809C25.6366 26.4676 25.5991 26.6524 25.5263 26.8244C25.4535 26.9963 25.3469 27.1519 25.2129 27.2818C25.0788 27.4118 24.9201 27.5135 24.7459 27.5809C24.5718 27.6483 24.386 27.6801 24.1993 27.6743C23.8373 27.6631 23.4938 27.5114 23.2416 27.2513C22.9894 26.9912 22.8484 26.6432 22.8484 26.2809C22.8484 25.9186 22.9894 25.5706 23.2416 25.3105C23.4938 25.0504 23.8373 24.8987 24.1993 24.8875ZM9.43167 9C10.0071 8.99989 10.5652 9.19764 11.0122 9.5601C11.4592 9.92257 11.7679 10.4277 11.8867 10.9908L12.2319 12.623H12.2372L13.357 17.988L14.2066 22.1007H24.7171L26.3279 14.2954H13.725L13.3758 12.623H26.3279C26.5762 12.623 26.8214 12.6784 27.0457 12.785C27.27 12.8916 27.4677 13.0468 27.6245 13.2393C27.7813 13.4319 27.8933 13.6569 27.9523 13.8982C28.0112 14.1394 28.0158 14.3907 27.9655 14.6339L26.356 22.4391C26.2782 22.8159 26.0727 23.1543 25.7744 23.3973C25.4761 23.6403 25.1032 23.773 24.7184 23.773H14.2066C13.8219 23.773 13.4489 23.6403 13.1506 23.3973C12.8523 23.1543 12.6469 22.8159 12.569 22.4391L10.9836 14.7717L10.9729 14.773L10.2491 11.3346C10.2092 11.1471 10.1061 10.979 9.95708 10.8584C9.80801 10.7378 9.62205 10.6722 9.43033 10.6724H8.00012V9H9.43167Z"
        fill="#171A1F" />
    <path d="M12.6 19.3454L25.6 19.3454" stroke="#171A1F" stroke-width="1.8" />
    <line y1="-0.9" x2="24.1661" y2="-0.9" transform="matrix(0.635323 -0.772246 -0.772246 -0.635323 9 25.6622)"
        stroke="#D8346F" stroke-width="1.8" />
    <line y1="-0.9" x2="24.1661" y2="-0.9" transform="matrix(0.635323 -0.772246 -0.772246 -0.635323 10.9319 26.1798)"
        stroke="#171A1F" stroke-width="1.8" />
</svg>