<svg width="24" height="24" viewBox="0 0 37 36" fill="none" xmlns="http://www.w3.org/2000/svg">
<rect x="0.400024" width="36" height="36" rx="18" fill="#E5FF65"/>
<path d="M13.7651 24.8875C14.1347 24.8875 14.4891 25.0343 14.7504 25.2956C15.0117 25.5569 15.1585 25.9113 15.1585 26.2809C15.1585 26.6505 15.0117 27.0049 14.7504 27.2662C14.4891 27.5275 14.1347 27.6743 13.7651 27.6743C13.3956 27.6743 13.0411 27.5275 12.7798 27.2662C12.5185 27.0049 12.3717 26.6505 12.3717 26.2809C12.3717 25.9113 12.5185 25.5569 12.7798 25.2956C13.0411 25.0343 13.3956 24.8875 13.7651 24.8875ZM23.7993 24.8875C23.9859 24.8817 24.1718 24.9135 24.3459 24.9809C24.52 25.0483 24.6788 25.15 24.8129 25.28C24.9469 25.4099 25.0535 25.5655 25.1263 25.7374C25.1991 25.9094 25.2366 26.0942 25.2366 26.2809C25.2366 26.4676 25.1991 26.6524 25.1263 26.8244C25.0535 26.9963 24.9469 27.1519 24.8129 27.2818C24.6788 27.4118 24.52 27.5135 24.3459 27.5809C24.1718 27.6483 23.9859 27.6801 23.7993 27.6743C23.4372 27.6631 23.0937 27.5114 22.8416 27.2513C22.5894 26.9912 22.4484 26.6432 22.4484 26.2809C22.4484 25.9186 22.5894 25.5706 22.8416 25.3105C23.0937 25.0504 23.4372 24.8987 23.7993 24.8875ZM9.03164 9C9.60712 8.99989 10.1651 9.19764 10.6121 9.5601C11.0591 9.92257 11.3679 10.4277 11.4867 10.9908L11.8319 12.623H11.8372L12.957 17.988L13.8066 22.1007H24.3171L25.9279 14.2954H13.3249L12.9758 12.623H25.9279C26.1762 12.623 26.4214 12.6784 26.6457 12.785C26.87 12.8916 27.0677 13.0468 27.2245 13.2393C27.3813 13.4319 27.4933 13.6569 27.5522 13.8982C27.6112 14.1394 27.6157 14.3907 27.5655 14.6339L25.956 22.4391C25.8781 22.8159 25.6727 23.1543 25.3744 23.3973C25.0761 23.6403 24.7032 23.773 24.3184 23.773H13.8066C13.4218 23.773 13.0489 23.6403 12.7506 23.3973C12.4523 23.1543 12.2469 22.8159 12.169 22.4391L10.5836 14.7717L10.5729 14.773L9.8491 11.3346C9.80922 11.1471 9.70611 10.979 9.55705 10.8584C9.40799 10.7378 9.22202 10.6722 9.03031 10.6724H7.6001V9H9.03164Z" fill="#171A1F"/>
<path d="M12.2 19.3454L25.2 19.3454" stroke="#171A1F" stroke-width="1.8"/>
</svg>
