<svg width="24" height="24" viewBox="0 0 24 24" fill="none" xmlns="http://www.w3.org/2000/svg">
<path d="M7.76502 18.8875C8.13458 18.8875 8.489 19.0343 8.75031 19.2956C9.01163 19.5569 9.15844 19.9113 9.15844 20.2809C9.15844 20.6505 9.01163 21.0049 8.75031 21.2662C8.489 21.5275 8.13458 21.6743 7.76502 21.6743C7.39546 21.6743 7.04104 21.5275 6.77973 21.2662C6.51841 21.0049 6.3716 20.6505 6.3716 20.2809C6.3716 19.9113 6.51841 19.5569 6.77973 19.2956C7.04104 19.0343 7.39546 18.8875 7.76502 18.8875ZM17.7992 18.8875C17.9858 18.8817 18.1717 18.9135 18.3458 18.9809C18.5199 19.0483 18.6787 19.15 18.8128 19.28C18.9468 19.4099 19.0534 19.5655 19.1262 19.7374C19.199 19.9094 19.2365 20.0942 19.2365 20.2809C19.2365 20.4676 19.199 20.6524 19.1262 20.8244C19.0534 20.9963 18.9468 21.1519 18.8128 21.2818C18.6787 21.4118 18.5199 21.5135 18.3458 21.5809C18.1717 21.6483 17.9858 21.6801 17.7992 21.6743C17.4371 21.6631 17.0936 21.5114 16.8415 21.2513C16.5893 20.9912 16.4483 20.6432 16.4483 20.2809C16.4483 19.9186 16.5893 19.5706 16.8415 19.3105C17.0936 19.0504 17.4371 18.8987 17.7992 18.8875ZM3.03155 3C3.60703 2.99989 4.16506 3.19764 4.61205 3.5601C5.05903 3.92257 5.36781 4.4277 5.48659 4.99079L5.83176 6.62302H5.83711L6.95693 11.988L7.80649 16.1007H18.317L19.9278 8.29538H7.32485L6.97566 6.62302H19.9278C20.1761 6.62304 20.4213 6.67837 20.6456 6.78497C20.8699 6.89158 21.0676 7.04679 21.2244 7.23934C21.3812 7.43189 21.4932 7.65694 21.5521 7.89815C21.6111 8.13937 21.6157 8.39069 21.5654 8.63387L19.9559 16.4391C19.878 16.8159 19.6726 17.1543 19.3743 17.3973C19.076 17.6403 18.7031 17.773 18.3183 17.773H7.80649C7.42175 17.773 7.04879 17.6403 6.75049 17.3973C6.45219 17.1543 6.24678 16.8159 6.16891 16.4391L4.58351 8.77167L4.57281 8.77301L3.84901 5.33462C3.80913 5.1471 3.70602 4.97897 3.55696 4.85841C3.4079 4.73784 3.22193 4.67216 3.03021 4.67237H1.60001V3H3.03155Z" fill="currentColor"/>
<path d="M6.20001 13.3455L19.2 13.3455" stroke="currentColor" stroke-width="1.8"/>
</svg>
