<svg width="33" height="32" viewBox="0 0 33 32" fill="none" xmlns="http://www.w3.org/2000/svg">
    <circle cx="16.3862" cy="16" r="16" fill="white" />
    <path
        d="M19.5222 17.3672C20.3239 17.3672 20.7997 18.2633 20.3505 18.9274L17.2432 23.5218L13.9684 23.5218L13.9684 17.3672L19.5222 17.3672Z"
        fill="url(#paint0_linear_3377_10041)" />
    <path
        d="M9.53379 8.33425H24.9277C25.71 8.33425 26.1894 9.19208 25.7793 9.85835L23.786 13.0975C23.422 13.689 22.7773 14.0493 22.0827 14.0493H9.57222L9.53379 8.33425Z"
        fill="black" />
    <path
        d="M9.53555 8.33081L17.7051 22.8416L15.5312 26.03C15.0022 26.8059 13.8503 26.7821 13.3537 25.985L6.37485 14.782C6.17836 14.4666 6.17298 14.0683 6.36088 13.7477L9.53555 8.33081Z"
        fill="black" />
    <defs>
        <linearGradient id="paint0_linear_3377_10041" x1="20.0874" y1="17.3672" x2="14.5189" y2="23.5218"
            gradientUnits="userSpaceOnUse">
            <stop />
            <stop offset="1" stop-color="#777373" />
        </linearGradient>
    </defs>
</svg>