<svg width="16" height="16" viewBox="0 0 16 16" fill="none" xmlns="http://www.w3.org/2000/svg">
    <path
        d="M15.0187 16H0.985946C0.676813 16 0.423885 15.7471 0.423885 15.4379C0.423885 15.1288 0.676813 14.8759 0.985946 14.8759H15.014C15.3232 14.8759 15.5761 15.1288 15.5761 15.4379C15.5761 15.7471 15.3279 16 15.0187 16ZM3.22482 13.6393H2.11944C1.39812 13.6393 0.80796 13.0492 0.80796 12.3279V3.88759C0.80796 3.16628 1.39812 2.57611 2.11944 2.57611H3.22482C3.94613 2.57611 4.5363 3.16628 4.5363 3.88759V12.3279C4.5363 13.0492 3.95082 13.6393 3.22482 13.6393ZM2.11944 3.70023C2.01639 3.70023 1.93208 3.78454 1.93208 3.88759V12.3279C1.93208 12.4309 2.01639 12.5152 2.11944 12.5152H3.22482C3.32787 12.5152 3.41218 12.4309 3.41218 12.3279V3.88759C3.41218 3.78454 3.32787 3.70023 3.22482 3.70023H2.11944ZM8.61124 13.6393H7.50585C6.78454 13.6393 6.19438 13.0492 6.19438 12.3279V6.83841C6.19438 6.1171 6.78454 5.52693 7.50585 5.52693H8.61124C9.33255 5.52693 9.92272 6.1171 9.92272 6.83841V12.3279C9.92272 13.0492 9.33255 13.6393 8.61124 13.6393ZM7.50585 6.65105C7.40281 6.65105 7.3185 6.73536 7.3185 6.83841V12.3279C7.3185 12.4309 7.40281 12.5152 7.50585 12.5152H8.61124C8.71428 12.5152 8.79859 12.4309 8.79859 12.3279V6.83841C8.79859 6.73536 8.71428 6.65105 8.61124 6.65105H7.50585ZM13.993 13.6393H12.8876C12.1663 13.6393 11.5761 13.0492 11.5761 12.3279V1.31148C11.5761 0.590164 12.1663 0 12.8876 0H13.993C14.7143 0 15.3044 0.590164 15.3044 1.31148V12.3279C15.3044 13.0492 14.719 13.6393 13.993 13.6393ZM12.8876 1.12412C12.7845 1.12412 12.7002 1.20843 12.7002 1.31148V12.3279C12.7002 12.4309 12.7845 12.5152 12.8876 12.5152H13.993C14.096 12.5152 14.1803 12.4309 14.1803 12.3279V1.31148C14.1803 1.20843 14.096 1.12412 13.993 1.12412H12.8876Z"
        fill="currentColor" />
</svg>