<svg width="14" height="14" viewBox="0 0 14 14" fill="none" xmlns="http://www.w3.org/2000/svg">
<path fill-rule="evenodd" clip-rule="evenodd" d="M10.3334 3.66668C10.3334 2.42052 10.3334 1.79744 10.0654 1.33334C9.88989 1.02931 9.63741 0.776829 9.33337 0.601293C8.86927 0.333344 8.24619 0.333344 7.00004 0.333344H3.77337C2.426 0.333344 1.75232 0.333344 1.26172 0.644688C1.01315 0.802437 0.802467 1.01312 0.644718 1.26169C0.333374 1.75229 0.333374 2.42597 0.333374 3.77334V7.00001C0.333374 8.24616 0.333374 8.86924 0.601323 9.33334C0.77686 9.63738 1.02934 9.88986 1.33337 10.0654C1.79748 10.3333 2.42055 10.3333 3.66671 10.3333V10.3333V11.3733C3.66671 12.2716 3.66671 12.7207 3.87427 13.0478C3.97944 13.2135 4.11989 13.3539 4.2856 13.4591C4.61267 13.6667 5.06179 13.6667 5.96004 13.6667H11.3734C12.2716 13.6667 12.7207 13.6667 13.0478 13.4591C13.2135 13.3539 13.354 13.2135 13.4591 13.0478C13.6667 12.7207 13.6667 12.2716 13.6667 11.3733V5.96001C13.6667 5.06176 13.6667 4.61264 13.4591 4.28557C13.354 4.11986 13.2135 3.97941 13.0478 3.87424C12.7207 3.66668 12.2716 3.66668 11.3734 3.66668H10.3334V3.66668ZM8.66671 3.66668V3.14668C8.66671 2.69755 8.66671 2.47299 8.56293 2.30946C8.51034 2.2266 8.44012 2.15637 8.35726 2.10379C8.19373 2.00001 7.96916 2.00001 7.52004 2.00001H3.14671C2.69758 2.00001 2.47302 2.00001 2.30949 2.10379C2.22663 2.15637 2.15641 2.2266 2.10382 2.30946C2.00004 2.47299 2.00004 2.69755 2.00004 3.14668V7.52001C2.00004 7.96913 2.00004 8.19369 2.10382 8.35723C2.15641 8.44009 2.22663 8.51031 2.30949 8.5629C2.47302 8.66668 2.69758 8.66668 3.14671 8.66668H3.66671V5.96001C3.66671 5.06176 3.66671 4.61264 3.87427 4.28557C3.97944 4.11986 4.11989 3.97941 4.2856 3.87424C4.61267 3.66668 5.06179 3.66668 5.96004 3.66668H8.66671Z" fill="currentColor"/>
</svg>
