<svg width="24" height="25" viewBox="0 0 24 25" fill="none" xmlns="http://www.w3.org/2000/svg">
    <path
        d="M19.67 5.51848C19.6639 5.50661 19.6537 5.4973 19.6414 5.49223C18.2117 4.83631 16.7031 4.36858 15.1531 4.10076C15.139 4.09814 15.1245 4.10003 15.1116 4.10615C15.0986 4.11228 15.0879 4.12233 15.081 4.13488C14.8756 4.50774 14.6891 4.89073 14.5223 5.28238C12.8515 5.02876 11.152 5.02876 9.48129 5.28238C9.31336 4.88973 9.12388 4.50665 8.91373 4.13488C8.90652 4.12261 8.89578 4.11278 8.88292 4.1067C8.87005 4.10061 8.85564 4.09854 8.84158 4.10076C7.29147 4.36802 5.78271 4.83578 4.35328 5.49227C4.34104 5.49746 4.33072 5.50631 4.32373 5.51762C1.46514 9.78654 0.682067 13.9505 1.06622 18.0629C1.0673 18.073 1.07039 18.0827 1.07532 18.0916C1.08025 18.1005 1.08691 18.1082 1.0949 18.1145C2.75943 19.3469 4.62123 20.2877 6.60084 20.8966C6.61478 20.9007 6.62967 20.9005 6.6435 20.896C6.65733 20.8915 6.66944 20.8828 6.67821 20.8712C7.10338 20.2927 7.48012 19.6801 7.80459 19.0396C7.80905 19.0308 7.8116 19.0212 7.81206 19.0114C7.81253 19.0015 7.8109 18.9917 7.80729 18.9825C7.80368 18.9734 7.79817 18.9651 7.79112 18.9582C7.78406 18.9513 7.77563 18.946 7.76638 18.9426C7.17229 18.7153 6.59714 18.4412 6.04633 18.1231C6.03632 18.1172 6.02792 18.109 6.02186 18.0991C6.0158 18.0892 6.01228 18.0779 6.01159 18.0663C6.0109 18.0547 6.01308 18.0432 6.01793 18.0326C6.02278 18.0221 6.03015 18.0129 6.03939 18.0059C6.1553 17.9193 6.26919 17.8301 6.38098 17.7382C6.39078 17.7302 6.40265 17.725 6.41524 17.7233C6.42783 17.7216 6.44064 17.7234 6.45223 17.7286C10.0608 19.3755 13.9676 19.3755 17.5335 17.7286C17.5451 17.7231 17.558 17.721 17.5708 17.7225C17.5836 17.7241 17.5957 17.7292 17.6056 17.7374C17.7175 17.8297 17.8317 17.9192 17.9481 18.0059C17.9574 18.0128 17.9648 18.0219 17.9697 18.0325C17.9747 18.043 17.9769 18.0545 17.9763 18.0661C17.9757 18.0777 17.9723 18.0889 17.9663 18.0989C17.9603 18.1088 17.952 18.1171 17.942 18.1231C17.3924 18.4439 16.8168 18.7178 16.2211 18.9417C16.2119 18.9452 16.2035 18.9507 16.1965 18.9577C16.1895 18.9647 16.184 18.973 16.1805 18.9823C16.1769 18.9915 16.1754 19.0014 16.1759 19.0113C16.1765 19.0212 16.1791 19.0308 16.1836 19.0396C16.5135 19.6765 16.8897 20.2884 17.3092 20.8702C17.3177 20.8821 17.3297 20.8911 17.3436 20.8958C17.3575 20.9005 17.3725 20.9007 17.3865 20.8964C19.3697 20.2896 21.2347 19.3488 22.9013 18.1145C22.9095 18.1085 22.9162 18.101 22.9212 18.0922C22.9261 18.0835 22.9291 18.0738 22.93 18.0638C23.3899 13.3094 22.1601 9.17957 19.67 5.51848ZM8.34351 15.5589C7.25706 15.5589 6.36186 14.5619 6.36186 13.3374C6.36186 12.113 7.23969 11.1159 8.34351 11.1159C9.45594 11.1159 10.3425 12.1216 10.3251 13.3373C10.3251 14.5619 9.44724 15.5589 8.34351 15.5589ZM15.6703 15.5589C14.5838 15.5589 13.6886 14.5619 13.6886 13.3374C13.6886 12.113 14.5665 11.1159 15.6703 11.1159C16.7828 11.1159 17.6693 12.1216 17.6519 13.3373C17.6519 14.5619 16.7828 15.5589 15.6703 15.5589Z"
        fill="currentColor" />
</svg>