<svg width="16" height="16" viewBox="0 0 16 16" fill="none" xmlns="http://www.w3.org/2000/svg">
    <path
        d="M13.1137 3.34631C13.1096 3.33839 13.1028 3.33218 13.0946 3.32881C12.1415 2.89152 11.1357 2.5797 10.1024 2.40116C10.093 2.39941 10.0833 2.40067 10.0747 2.40475C10.0661 2.40884 10.0589 2.41554 10.0543 2.42391C9.91738 2.67248 9.79306 2.9278 9.68184 3.18891C8.568 3.01983 7.43502 3.01983 6.32119 3.18891C6.20923 2.92714 6.08291 2.67175 5.94281 2.42391C5.93801 2.41572 5.93085 2.40917 5.92227 2.40512C5.91369 2.40106 5.90409 2.39968 5.89471 2.40116C4.86131 2.57933 3.85547 2.89117 2.90251 3.32883C2.89435 3.33229 2.88747 3.33819 2.88281 3.34573C0.977087 6.19168 0.455037 8.96765 0.711137 11.7093C0.711858 11.716 0.713922 11.7225 0.717207 11.7284C0.720493 11.7343 0.724933 11.7395 0.730262 11.7436C1.83995 12.5653 3.08115 13.1924 4.40089 13.5984C4.41018 13.6011 4.42011 13.601 4.42933 13.598C4.43855 13.595 4.44662 13.5892 4.45246 13.5815C4.73591 13.1958 4.98707 12.7874 5.20339 12.3604C5.20636 12.3545 5.20806 12.3481 5.20837 12.3416C5.20868 12.335 5.20759 12.3284 5.20518 12.3223C5.20278 12.3162 5.1991 12.3107 5.1944 12.3061C5.1897 12.3015 5.18408 12.298 5.17791 12.2957C4.78185 12.1442 4.39842 11.9615 4.03121 11.7494C4.02454 11.7455 4.01894 11.74 4.0149 11.7334C4.01086 11.7268 4.00851 11.7193 4.00805 11.7115C4.00759 11.7038 4.00905 11.6961 4.01228 11.6891C4.01551 11.682 4.02043 11.6759 4.02659 11.6712C4.10386 11.6135 4.17978 11.554 4.25431 11.4928C4.26085 11.4874 4.26876 11.484 4.27715 11.4828C4.28554 11.4817 4.29408 11.4829 4.30181 11.4864C6.70754 12.5843 9.31206 12.5843 11.6893 11.4864C11.6971 11.4827 11.7057 11.4813 11.7142 11.4823C11.7227 11.4834 11.7308 11.4868 11.7374 11.4922C11.812 11.5538 11.8881 11.6135 11.9657 11.6712C11.9719 11.6759 11.9769 11.6819 11.9801 11.689C11.9834 11.696 11.9849 11.7037 11.9845 11.7114C11.9841 11.7191 11.9818 11.7266 11.9779 11.7332C11.9739 11.7399 11.9683 11.7454 11.9617 11.7494C11.5953 11.9633 11.2115 12.1458 10.8144 12.2951C10.8082 12.2975 10.8026 12.3011 10.798 12.3058C10.7933 12.3104 10.7897 12.316 10.7873 12.3222C10.7849 12.3283 10.7839 12.3349 10.7843 12.3415C10.7846 12.3481 10.7864 12.3545 10.7894 12.3604C11.0093 12.785 11.2601 13.1929 11.5398 13.5808C11.5454 13.5887 11.5535 13.5947 11.5627 13.5978C11.572 13.601 11.582 13.6011 11.5913 13.5983C12.9134 13.1937 14.1568 12.5665 15.2679 11.7436C15.2733 11.7397 15.2778 11.7346 15.2811 11.7288C15.2844 11.723 15.2864 11.7165 15.287 11.7098C15.5936 8.54026 14.7737 5.78703 13.1137 3.34631ZM5.56266 10.0399C4.83836 10.0399 4.24156 9.37523 4.24156 8.55893C4.24156 7.74263 4.82679 7.07791 5.56266 7.07791C6.30429 7.07791 6.89531 7.7484 6.88374 8.55888C6.88374 9.37523 6.29849 10.0399 5.56266 10.0399ZM10.4472 10.0399C9.72289 10.0399 9.12609 9.37523 9.12609 8.55893C9.12609 7.74263 9.71131 7.07791 10.4472 7.07791C11.1888 7.07791 11.7798 7.7484 11.7683 8.55888C11.7683 9.37523 11.1888 10.0399 10.4472 10.0399Z"
        fill="currentColor" />
</svg>