<svg width="16" height="16" viewBox="0 0 16 16" fill="none" xmlns="http://www.w3.org/2000/svg">
    <path
        d="M7.5 2.36331C10.883 2.36331 13.6367 5.11517 13.6367 8.5C13.6367 11.8848 10.883 14.6349 7.5 14.6349C4.11698 14.6349 1.36331 11.883 1.36331 8.5C1.36331 5.11698 4.11698 2.36331 7.5 2.36331ZM7.5 1C3.35778 1 0 4.35778 0 8.5C0 12.6422 3.35778 16 7.5 16C11.6422 16 15 12.6422 15 8.5C15 4.35778 11.6422 1 7.5 1Z"
        fill="currentColor" />
    <path
        d="M7.5002 2.36331C8.45055 2.36331 9.88599 4.81041 9.88599 8.5C9.88599 12.1896 8.45055 14.6349 7.5002 14.6349C6.54985 14.6349 5.11441 12.1878 5.11441 8.5C5.11441 4.81221 6.54985 2.36331 7.5002 2.36331ZM7.5002 1C5.42999 1 3.7511 4.35778 3.7511 8.5C3.7511 12.6422 5.42999 16 7.5002 16C9.57041 16 11.2493 12.6422 11.2493 8.5C11.2493 4.35778 9.57041 1 7.5002 1Z"
        fill="currentColor" />
    <path d="M0.681641 5.77148H14.3183V7.13479H0.681641V5.77148ZM0.681641 9.86321H14.3183V11.2265H0.681641V9.86321Z"
        fill="currentColor" />
</svg>