<svg width="24" height="24" viewBox="0 0 24 24" fill="none" xmlns="http://www.w3.org/2000/svg">
    <path fill-rule="evenodd" clip-rule="evenodd"
        d="M13.492 3.21395L21.3148 7.20479C21.6763 7.38921 21.682 7.91354 21.3245 8.10599L11.1646 13.5771C10.5981 13.8822 9.92217 13.8898 9.34924 13.5975L2.9702 10.3432C2.19307 10.0246 1.32413 10.6064 1.32413 11.4827C1.32413 12.1873 1.71428 12.8314 2.33191 13.1465L8.72739 16.4092C9.11779 16.0036 9.66138 15.752 10.2626 15.752C10.8466 15.752 11.3763 15.9894 11.7639 16.3747L19.7298 12.0852C19.708 11.9598 19.6966 11.8306 19.6966 11.6988C19.6966 10.4863 20.6599 9.50344 21.8483 9.50344C23.0366 9.50344 24 10.4863 24 11.6988C24 12.9114 23.0366 13.8943 21.8483 13.8943C21.2672 13.8943 20.7399 13.6593 20.3528 13.2773L12.3825 17.5693C12.4034 17.6922 12.4143 17.8185 12.4143 17.9474C12.4143 19.1599 11.4509 20.1429 10.2626 20.1429C9.07425 20.1429 8.11088 19.1599 8.11088 17.9474C8.11088 17.8353 8.11912 17.7251 8.13504 17.6175L1.64691 14.3076C0.637576 13.7926 0 12.7401 0 11.5886V10.9473C0 10.0704 0.475664 9.26555 1.23575 8.85629L11.6767 3.2343C12.2432 2.92924 12.9191 2.92167 13.492 3.21395ZM10.2626 18.7918C10.7197 18.7918 11.0902 18.4138 11.0902 17.9474C11.0902 17.4811 10.7197 17.103 10.2626 17.103C9.80554 17.103 9.43502 17.4811 9.43502 17.9474C9.43502 18.4138 9.80554 18.7918 10.2626 18.7918ZM22.6759 11.6988C22.6759 12.1652 22.3053 12.5432 21.8483 12.5432C21.3912 12.5432 21.0207 12.1652 21.0207 11.6988C21.0207 11.2325 21.3912 10.8544 21.8483 10.8544C22.3053 10.8544 22.6759 11.2325 22.6759 11.6988Z"
        fill="currentColor" />
</svg>