<svg width="24" height="24" viewBox="0 0 24 24" fill="none" xmlns="http://www.w3.org/2000/svg">
<rect width="24" height="24" rx="4" fill="#E5FF65" fill-opacity="0.1"/>
<path d="M14.9419 4C15.8024 4 16.5004 4.72052 16.5004 5.60955C16.5004 5.91956 16.4139 6.22257 16.2509 6.48258L12.4723 12.5228V20L10.9138 18.9275V12.0473L14.9419 5.60955H4.55906L8.58569 12.0468L8.58619 17.3254L7.02714 16.2524V12.5213L3.24952 6.48258C2.78251 5.73605 2.99001 4.73952 3.71354 4.25751C3.9636 4.0901 4.25764 4.0005 4.55856 4H14.9419ZM18.1435 16.3384V17.9474H13.4018V16.3384H18.1435ZM20.2506 13.6563V15.2654H13.4018V13.6563H20.2506Z" fill="#E5FF65"/>
</svg>
