<svg width="28" height="28" viewBox="0 0 28 28" fill="none" xmlns="http://www.w3.org/2000/svg">
    <path
        d="M20.5287 25.0684L0 16.4417V20.4589C0 21.2477 0.463685 21.9629 1.18386 22.2848L13.154 27.6352C13.6733 27.8673 14.2669 27.8673 14.7863 27.6352L20.5287 25.0684Z"
        fill="url(#paint0_linear_630_633)" />
    <path
        d="M0 5.05585V9.65142C0 10.4566 0.482861 11.1833 1.22518 11.4952L25.1654 21.5556C26.4835 22.1095 27.9402 21.1415 27.9402 19.7118V16.7971L0 5.05585Z"
        fill="#E5FF65" />
    <path
        d="M27.9402 11.2339L7.60321 2.68776L13.1922 0.328359C13.6895 0.118423 14.2506 0.118423 14.7479 0.328359L26.718 5.38153C27.4587 5.69422 27.9402 6.42006 27.9402 7.22407V11.2339Z"
        fill="url(#paint1_linear_630_633)" />
    <defs>
        <linearGradient id="paint0_linear_630_633" x1="0.507581" y1="17.5575" x2="20.5287" y2="28.6275"
            gradientUnits="userSpaceOnUse">
            <stop stop-color="#C4E970" />
            <stop offset="1" stop-color="#D5E970" stop-opacity="0" />
        </linearGradient>
        <linearGradient id="paint1_linear_630_633" x1="12.2633" y1="-4.9744" x2="30.8872" y2="13.2428"
            gradientUnits="userSpaceOnUse">
            <stop stop-color="#D5E970" stop-opacity="0" />
            <stop offset="1" stop-color="#D5E970" />
        </linearGradient>
    </defs>
</svg>