<svg width="92" height="28" viewBox="0 0 92 28" fill="none" xmlns="http://www.w3.org/2000/svg">
    <path
        d="M20.5287 25.0684L0 16.4417V20.4589C0 21.2477 0.463685 21.9629 1.18386 22.2848L13.154 27.6352C13.6733 27.8673 14.2669 27.8673 14.7863 27.6352L20.5287 25.0684Z"
        fill="url(#paint0_linear_630_633)" />
    <path
        d="M0 5.05585V9.65142C0 10.4566 0.482861 11.1833 1.22518 11.4952L25.1654 21.5556C26.4835 22.1095 27.9402 21.1415 27.9402 19.7118V16.7971L0 5.05585Z"
        fill="#E5FF65" />
    <path
        d="M27.9402 11.2339L7.60321 2.68776L13.1922 0.328359C13.6895 0.118423 14.2506 0.118423 14.7479 0.328359L26.718 5.38153C27.4587 5.69422 27.9402 6.42006 27.9402 7.22407V11.2339Z"
        fill="url(#paint1_linear_630_633)" />
    <path
        d="M44.1203 9.3V12.8H48.8203V15.02H44.1203V18.72H49.4203V21H41.3203V7.02H49.4203V9.3H44.1203ZM61.4648 7.04V9.3H57.7448V21H54.9448V9.3H51.2248V7.04H61.4648ZM90.4393 7.04V21H87.6393V15.06H81.6593V21H78.8593V7.04H81.6593V12.78H87.6393V7.04H90.4393Z"
        fill="white" />
    <path
        d="M62.8278 14C62.8278 12.6267 63.1344 11.4 63.7478 10.32C64.3744 9.22667 65.2211 8.38 66.2878 7.78C67.3678 7.16667 68.5744 6.86 69.9078 6.86C71.4678 6.86 72.8344 7.26 74.0078 8.06C75.1811 8.86 76.0011 9.96667 76.4678 11.38H73.2478C72.9278 10.7133 72.4744 10.2133 71.8878 9.88C71.3144 9.54667 70.6478 9.38 69.8878 9.38C69.0744 9.38 68.3478 9.57333 67.7078 9.96C67.0811 10.3333 66.5878 10.8667 66.2278 11.56C65.8811 12.2533 65.7078 13.0667 65.7078 14C65.7078 14.92 65.8811 15.7333 66.2278 16.44C66.5878 17.1333 67.0811 17.6733 67.7078 18.06C68.3478 18.4333 69.0744 18.62 69.8878 18.62C70.6478 18.62 71.3144 18.4533 71.8878 18.12C72.4744 17.7733 72.9278 17.2667 73.2478 16.6H76.4678C76.0011 18.0267 75.1811 19.14 74.0078 19.94C72.8478 20.7267 71.4811 21.12 69.9078 21.12C68.5744 21.12 67.3678 20.82 66.2878 20.22C65.2211 19.6067 64.3744 18.76 63.7478 17.68C63.1344 16.6 62.8278 15.3733 62.8278 14Z"
        fill="#E5FF65" />
    <defs>
        <linearGradient id="paint0_linear_630_633" x1="0.507581" y1="17.5575" x2="20.5287" y2="28.6275"
            gradientUnits="userSpaceOnUse">
            <stop stop-color="#C4E970" />
            <stop offset="1" stop-color="#D5E970" stop-opacity="0" />
        </linearGradient>
        <linearGradient id="paint1_linear_630_633" x1="12.2633" y1="-4.9744" x2="30.8872" y2="13.2428"
            gradientUnits="userSpaceOnUse">
            <stop stop-color="#D5E970" stop-opacity="0" />
            <stop offset="1" stop-color="#D5E970" />
        </linearGradient>
    </defs>
</svg>