<svg width="16" height="16" viewBox="0 0 16 16" fill="none" xmlns="http://www.w3.org/2000/svg">
    <g opacity="0.65">
        <path
            d="M10.9983 11.9981C10.9983 11.0778 11.7444 10.3317 12.6647 10.3317C13.585 10.3317 14.3311 11.0778 14.3311 11.9981H14.9977V14.9977H10.3317V11.9981H10.9983ZM11.9981 11.9981H13.3313C13.3313 11.63 13.0328 11.3316 12.6647 11.3316C12.2966 11.3316 11.9981 11.63 11.9981 11.9981ZM14.531 9.33188H13.5068C13.6099 8.90437 13.6645 8.45794 13.6645 7.99876C13.6645 4.86963 11.1279 2.33297 7.99876 2.33297C4.86963 2.33297 2.33297 4.86963 2.33297 7.99876C2.33297 11.1279 4.86963 13.6645 7.99876 13.6645C8.45794 13.6645 8.90437 13.6099 9.33188 13.5068V14.531C8.90113 14.6185 8.45532 14.6644 7.99876 14.6644C4.31743 14.6644 1.33313 11.6801 1.33313 7.99876C1.33313 4.31743 4.31743 1.33313 7.99876 1.33313C11.6801 1.33313 14.6644 4.31743 14.6644 7.99876C14.6644 8.45532 14.6185 8.90113 14.531 9.33188ZM11.3316 12.998V13.9978H13.9978V12.998H11.3316ZM7.99876 5.17077L10.8267 7.99876L7.99876 10.8267L5.17077 7.99876L7.99876 5.17077ZM6.58476 7.99876L7.99876 9.41276L9.41276 7.99876L7.99876 6.58476L6.58476 7.99876Z"
            fill="currentColor" />
    </g>
</svg>