<svg width="32" height="33" viewBox="0 0 32 33" fill="none" xmlns="http://www.w3.org/2000/svg">
    <g opacity="0.2">
        <path
            d="M16.3968 10.108C15.146 10.1111 13.8959 10.0513 12.6512 9.9288C12.4481 9.90656 12.2606 9.80953 12.1251 9.65662C11.9897 9.50372 11.916 9.30586 11.9184 9.1016C11.9184 8.9096 11.856 8.8552 11.8192 8.8216C11.4848 8.5352 10.528 8.5496 10.0912 8.6216C9.97112 8.64232 9.84796 8.63606 9.73062 8.60327C9.61329 8.57048 9.50473 8.51197 9.41281 8.43201C9.3209 8.35204 9.24794 8.25262 9.19922 8.14095C9.15051 8.02928 9.12727 7.90817 9.13118 7.7864L9.20798 4.988C9.21111 4.86391 9.2423 4.74213 9.2992 4.63181C9.35609 4.52149 9.43723 4.42548 9.53651 4.35097C9.6358 4.27647 9.75066 4.22541 9.87249 4.20162C9.99432 4.17783 10.12 4.18192 10.24 4.2136L13.1616 5.3992L12.4112 3.22C12.3897 3.09701 12.3965 2.97074 12.4311 2.8508C12.4658 2.73085 12.5273 2.62039 12.6111 2.52782C12.6949 2.43525 12.7987 2.36301 12.9146 2.3166C13.0305 2.27019 13.1555 2.25083 13.28 2.26L19.1216 2.628C19.2465 2.63734 19.3676 2.67508 19.4757 2.73836C19.5838 2.80163 19.676 2.88876 19.7453 2.99309C19.8146 3.09743 19.8592 3.21622 19.8756 3.34039C19.892 3.46456 19.8798 3.59084 19.84 3.7096L19.16 4.9992L20.4 3.7928C20.5324 3.71082 20.6854 3.66807 20.8411 3.66948C20.9969 3.6709 21.1491 3.71643 21.28 3.8008L22.6768 4.7016C22.7962 4.7785 22.8936 4.885 22.9596 5.01074C23.0256 5.13647 23.0579 5.27715 23.0534 5.41908C23.0489 5.56101 23.0077 5.69935 22.9338 5.82064C22.86 5.94193 22.756 6.04203 22.632 6.1112C22.1792 6.3672 20.9488 7.2312 20.712 8.1112C20.3488 9.436 18.8976 10.108 16.3968 10.108ZM26.2672 12.4424C26.1374 12.4435 26.0093 12.4137 25.8933 12.3556C25.7773 12.2975 25.6768 12.2126 25.6 12.108C24 9.9448 23.2 10.036 21.44 10.2344C21.2231 10.259 21.0054 10.1965 20.8347 10.0605C20.6639 9.92462 20.5542 9.72644 20.5296 9.5096C20.505 9.29276 20.5675 9.07502 20.7034 8.90429C20.8394 8.73355 21.0375 8.62381 21.2544 8.5992C23.4256 8.3544 24.8608 8.3432 26.92 11.1304C27.0101 11.2529 27.0645 11.398 27.0772 11.5496C27.0899 11.7011 27.0604 11.8532 26.992 11.9891C26.9235 12.1249 26.8189 12.2391 26.6896 12.3191C26.5602 12.3992 26.4113 12.4418 26.2592 12.4424H26.2672ZM26.4 17.788C25.6944 16.1688 24.64 15.14 23.6144 14.1464C22.5616 13.1224 21.5664 12.1544 20.8048 10.4936C20.7326 10.3361 20.6201 10.2003 20.4788 10.1C20.3375 9.99971 20.1723 9.93836 19.9998 9.92214C19.8272 9.90593 19.6535 9.93542 19.496 10.0076C19.3384 10.0799 19.2027 10.1923 19.1024 10.3336C18.2496 11.5352 14.4624 11.4184 12.7696 10.9576C12.593 10.9096 12.4065 10.9117 12.231 10.9637C12.0555 11.0157 11.8979 11.1155 11.776 11.252C11.3294 11.708 10.848 12.1285 10.336 12.5096C8.64958 13.8552 6.33598 15.6968 5.50078 19.0968C4.27518 24.0568 4.97438 27.2872 7.58078 28.6968C9.37278 29.6664 13.4624 29.8248 15.7408 29.8312H15.9008C18.5488 29.8312 22.1168 29.6232 23.7072 29.0312C25.1248 28.5064 26.2064 27.4472 26.8352 25.9704C27.8112 23.7 27.6464 20.6424 26.4 17.788ZM16.7536 25.3928V26.524C16.752 26.5897 16.7251 26.6522 16.6787 26.6987C16.6322 26.7452 16.5697 26.772 16.504 26.7736H15.376C15.3103 26.772 15.2477 26.7452 15.2013 26.6987C15.1548 26.6522 15.128 26.5897 15.1264 26.524V25.46C14.5779 25.4326 14.0326 25.3604 13.496 25.244C13.4329 25.2392 13.3738 25.2109 13.3306 25.1647C13.2873 25.1185 13.263 25.0577 13.2624 24.9944V24.0952C13.2632 24.0333 13.288 23.9742 13.3316 23.9304C13.3752 23.8865 13.4341 23.8612 13.496 23.86H13.5296C14.0288 23.9256 15.2768 23.9928 15.7424 23.9928C16.8624 23.9928 17.1824 23.5928 17.1824 22.8616C17.1824 22.3816 16.9488 22.1288 16.1168 21.6296L14.4688 20.6488C13.304 19.9656 12.9888 19.2344 12.9888 18.3528C12.9888 17.204 13.5536 16.3048 15.1184 16.0552V15.0088C15.12 14.9431 15.1468 14.8806 15.1933 14.8341C15.2397 14.7876 15.3023 14.7608 15.368 14.7592H16.4992C16.5649 14.7608 16.6274 14.7876 16.6739 14.8341C16.7203 14.8806 16.7472 14.9431 16.7488 15.0088V16.0072C17.3392 16.035 17.9272 16.1019 18.5088 16.2072C18.6416 16.2408 18.7408 16.324 18.7408 16.4408V17.372C18.7435 17.4019 18.7399 17.432 18.7302 17.4603C18.7205 17.4887 18.705 17.5148 18.6847 17.5368C18.6643 17.5588 18.6396 17.5763 18.612 17.5881C18.5845 17.6 18.5548 17.6059 18.5248 17.6056H18.4912C17.6592 17.5224 16.8448 17.4712 16.0288 17.4712C15.0976 17.4712 14.7136 17.804 14.7136 18.3544C14.7136 18.7704 14.9312 19.02 15.7456 19.4744L17.2432 20.3064C18.624 21.0728 18.9904 21.8712 18.9904 22.8664C19.0032 23.9272 18.4384 25.076 16.7568 25.3928H16.7536Z"
            fill="white" />
    </g>
</svg>