<svg width="234" height="234" viewBox="0 0 234 234" fill="none" xmlns="http://www.w3.org/2000/svg">
    <mask id="mask0_537_5091" style="mask-type:alpha" maskUnits="userSpaceOnUse" x="0" y="0" width="234" height="234">
        <rect width="234" height="234" fill="url(#paint0_radial_537_5091)" />
    </mask>
    <g mask="url(#mask0_537_5091)">
        <g opacity="0.1">
            <rect x="105" y="-24" width="15" height="273" fill="url(#paint1_linear_537_5091)" />
            <rect x="174.41" y="-9.08197" width="13.4262" height="273" transform="rotate(30 174.41 -9.08197)"
                fill="#E5FF65" />
            <rect x="226.623" y="38.6557" width="13.4262" height="273" transform="rotate(60 226.623 38.6557)"
                fill="#E5FF65" />
            <rect x="249" y="105" width="15" height="273" transform="rotate(90 249 105)" fill="#E5FF65" />
            <rect x="234.082" y="175.902" width="13.4262" height="273" transform="rotate(120 234.082 175.902)"
                fill="#E5FF65" />
            <rect x="186.344" y="226.623" width="13.4262" height="273" transform="rotate(150 186.344 226.623)"
                fill="#E5FF65" />
        </g>
    </g>
    <path
        d="M137.678 87.2292C137.601 86.943 137.469 86.6748 137.288 86.4399C137.108 86.2049 136.883 86.0079 136.626 85.86C136.37 85.7119 136.087 85.6159 135.793 85.5773C135.499 85.5388 135.201 85.5585 134.915 85.6353L131.08 86.6642L130.05 82.8294C129.973 82.5432 129.841 82.275 129.661 82.0401C129.48 81.8051 129.255 81.608 128.999 81.4599C128.742 81.3119 128.459 81.2158 128.165 81.1772C127.872 81.1387 127.573 81.1583 127.287 81.2351L95.1564 89.8584C94.5786 90.0135 94.0861 90.3918 93.7872 90.91C93.4883 91.4282 93.4075 92.0439 93.5625 92.6216L94.5918 96.4569L90.7566 97.4862C90.4704 97.5629 90.2022 97.6953 89.9672 97.8756C89.7322 98.056 89.5351 98.281 89.3871 98.5376C89.2391 98.7942 89.1431 99.0775 89.1046 99.3712C89.0661 99.6649 89.0858 99.9634 89.1627 100.249L101.329 145.582C101.484 146.159 101.862 146.652 102.38 146.95C102.898 147.249 103.514 147.33 104.092 147.175L107.927 146.146L108.956 149.981C109.033 150.267 109.166 150.536 109.346 150.771C109.526 151.006 109.751 151.203 110.008 151.351C110.264 151.499 110.548 151.595 110.841 151.633C111.135 151.672 111.434 151.652 111.72 151.575L143.85 142.952C144.136 142.875 144.405 142.743 144.64 142.563C144.875 142.382 145.072 142.157 145.22 141.901C145.368 141.644 145.464 141.361 145.502 141.067C145.541 140.773 145.521 140.475 145.444 140.189L144.415 136.353L148.25 135.324C148.536 135.248 148.805 135.115 149.04 134.935C149.274 134.754 149.472 134.53 149.62 134.273C149.768 134.016 149.864 133.733 149.902 133.439C149.941 133.145 149.921 132.847 149.844 132.561L137.678 87.2292Z"
        fill="#FF5A7B" />
    <path
        d="M114.57 103.472C114.647 103.197 114.794 102.948 114.997 102.748C115.2 102.548 115.451 102.404 115.726 102.33C116.001 102.256 116.29 102.255 116.566 102.327C116.841 102.398 117.094 102.541 117.298 102.739L122.443 107.75L129.62 107.464C129.904 107.452 130.187 107.515 130.44 107.646C130.693 107.776 130.908 107.971 131.063 108.21C131.218 108.448 131.309 108.724 131.325 109.008C131.342 109.292 131.285 109.576 131.158 109.832L127.983 116.273L130.473 123.01C130.572 123.277 130.599 123.565 130.553 123.846C130.507 124.127 130.388 124.391 130.209 124.613C130.03 124.834 129.796 125.005 129.531 125.109C129.266 125.213 128.979 125.246 128.697 125.206L121.589 124.175L115.952 128.626C115.728 128.803 115.463 128.918 115.181 128.961C114.899 129.004 114.612 128.973 114.346 128.871C114.08 128.769 113.845 128.599 113.664 128.379C113.483 128.159 113.363 127.896 113.315 127.615L112.098 120.537L106.123 116.55C105.886 116.392 105.695 116.175 105.567 115.921C105.439 115.666 105.38 115.383 105.394 115.099C105.409 114.814 105.498 114.539 105.651 114.299C105.804 114.059 106.018 113.863 106.27 113.73L112.626 110.385L114.57 103.472Z"
        fill="#FF5A7B" />
    <g filter="url(#filter0_d_537_5091)">
        <path
            d="M137.016 77.9736C136.056 74.3955 132.372 72.2705 128.794 73.2307L83.9732 85.2599C80.3955 86.22 78.2705 89.9043 79.2307 93.4819L95.4798 154.027C96.4399 157.604 100.124 159.729 103.702 158.769L148.523 146.741C152.1 145.78 154.226 142.096 153.265 138.519L137.016 77.9736Z"
            fill="#E5FF65" />
    </g>
    <path opacity="0.3"
        d="M134.424 86.8229C134.347 86.5368 134.215 86.2685 134.034 86.0336C133.854 85.7987 133.629 85.6016 133.372 85.4537C133.115 85.3057 132.832 85.2096 132.539 85.1711C132.245 85.1325 131.946 85.1522 131.66 85.2291L127.825 86.258L126.796 82.4231C126.719 82.137 126.587 81.8688 126.406 81.6338C126.226 81.3988 126.001 81.2017 125.744 81.0537C125.488 80.9056 125.205 80.8096 124.911 80.771C124.617 80.7324 124.319 80.7521 124.033 80.8289L91.902 89.4522C91.3242 89.6073 90.8317 89.9855 90.5328 90.5037C90.2339 91.0219 90.1531 91.6376 90.3081 92.2154L91.3374 96.0507L87.5022 97.08C87.216 97.1567 86.9478 97.289 86.7128 97.4694C86.4778 97.6498 86.2807 97.8747 86.1327 98.1313C85.9847 98.3879 85.8887 98.6712 85.8502 98.9649C85.8117 99.2587 85.8314 99.5571 85.9083 99.8432L98.0743 145.175C98.2296 145.753 98.6078 146.245 99.126 146.544C99.6441 146.843 100.26 146.924 100.837 146.769L104.673 145.74L105.702 149.575C105.779 149.861 105.911 150.129 106.092 150.364C106.272 150.599 106.497 150.796 106.754 150.944C107.01 151.092 107.293 151.188 107.587 151.227C107.881 151.265 108.179 151.246 108.465 151.169L140.596 142.546C140.882 142.469 141.15 142.337 141.385 142.156C141.62 141.976 141.817 141.751 141.965 141.494C142.113 141.238 142.209 140.954 142.248 140.661C142.286 140.367 142.267 140.068 142.19 139.782L141.16 135.947L144.996 134.918C145.282 134.841 145.55 134.709 145.785 134.529C146.02 134.348 146.217 134.123 146.365 133.867C146.513 133.61 146.609 133.327 146.648 133.033C146.686 132.739 146.666 132.441 146.59 132.155L134.424 86.8229Z"
        fill="white" />
    <g filter="url(#filter1_i_537_5091)">
        <path
            d="M111.313 103.065C111.39 102.791 111.537 102.542 111.74 102.342C111.942 102.141 112.193 101.997 112.468 101.923C112.743 101.85 113.033 101.849 113.309 101.92C113.584 101.992 113.836 102.134 114.04 102.333L119.186 107.344L126.362 107.057C126.647 107.046 126.93 107.108 127.183 107.239C127.436 107.37 127.65 107.564 127.806 107.803C127.961 108.042 128.051 108.317 128.068 108.602C128.085 108.886 128.027 109.17 127.901 109.425L124.725 115.867L127.216 122.604C127.315 122.871 127.342 123.159 127.296 123.44C127.249 123.721 127.131 123.985 126.952 124.206C126.773 124.428 126.539 124.599 126.274 124.703C126.009 124.807 125.721 124.84 125.439 124.799L118.331 123.769L112.694 128.22C112.471 128.396 112.205 128.512 111.924 128.555C111.642 128.597 111.354 128.566 111.088 128.464C110.822 128.362 110.587 128.193 110.407 127.973C110.226 127.753 110.106 127.49 110.057 127.209L108.84 120.13L102.866 116.144C102.629 115.986 102.437 115.769 102.309 115.515C102.182 115.26 102.122 114.977 102.137 114.692C102.152 114.408 102.24 114.132 102.394 113.892C102.547 113.653 102.76 113.457 103.012 113.324L109.368 109.979L111.313 103.065Z"
            fill="#67704B" />
    </g>
    <defs>
        <filter id="filter0_d_537_5091" x="65" y="63" width="102.496" height="114" filterUnits="userSpaceOnUse"
            color-interpolation-filters="sRGB">
            <feFlood flood-opacity="0" result="BackgroundImageFix" />
            <feColorMatrix in="SourceAlpha" type="matrix" values="0 0 0 0 0 0 0 0 0 0 0 0 0 0 0 0 0 0 127 0"
                result="hardAlpha" />
            <feOffset dy="4" />
            <feGaussianBlur stdDeviation="7" />
            <feComposite in2="hardAlpha" operator="out" />
            <feColorMatrix type="matrix" values="0 0 0 0 0.898039 0 0 0 0 1 0 0 0 0 0.396078 0 0 0 0.5 0" />
            <feBlend mode="normal" in2="BackgroundImageFix" result="effect1_dropShadow_537_5091" />
            <feBlend mode="normal" in="SourceGraphic" in2="effect1_dropShadow_537_5091" result="shape" />
        </filter>
        <filter id="filter1_i_537_5091" x="102.135" y="101.867" width="25.936" height="27.706"
            filterUnits="userSpaceOnUse" color-interpolation-filters="sRGB">
            <feFlood flood-opacity="0" result="BackgroundImageFix" />
            <feBlend mode="normal" in="SourceGraphic" in2="BackgroundImageFix" result="shape" />
            <feColorMatrix in="SourceAlpha" type="matrix" values="0 0 0 0 0 0 0 0 0 0 0 0 0 0 0 0 0 0 127 0"
                result="hardAlpha" />
            <feOffset dy="1" />
            <feGaussianBlur stdDeviation="2" />
            <feComposite in2="hardAlpha" operator="arithmetic" k2="-1" k3="1" />
            <feColorMatrix type="matrix" values="0 0 0 0 0.716716 0 0 0 0 0.845833 0 0 0 0 0.081059 0 0 0 1 0" />
            <feBlend mode="normal" in2="shape" result="effect1_innerShadow_537_5091" />
        </filter>
        <radialGradient id="paint0_radial_537_5091" cx="0" cy="0" r="1" gradientUnits="userSpaceOnUse"
            gradientTransform="translate(117 102.87) rotate(90) scale(96.087)">
            <stop stop-color="#D9D9D9" />
            <stop offset="1" stop-color="#D9D9D9" stop-opacity="0" />
        </radialGradient>
        <linearGradient id="paint1_linear_537_5091" x1="112.5" y1="-24" x2="112.5" y2="249"
            gradientUnits="userSpaceOnUse">
            <stop stop-color="#E5FF65" />
            <stop offset="1" stop-color="#E5FF65" stop-opacity="0" />
        </linearGradient>
    </defs>
</svg>