<svg xmlns="http://www.w3.org/2000/svg" width="32" height="32" viewBox="0 0 32 32" fill="none">
    <g clip-path="url(#clip0_1122_25142)">
        <path
            d="M23.9418 5.02949C23.9147 4.92834 23.8679 4.83353 23.8041 4.75048C23.7403 4.66743 23.6608 4.59778 23.57 4.5455C23.4794 4.49316 23.3792 4.45921 23.2754 4.44558C23.1716 4.43195 23.0662 4.43892 22.965 4.46608L21.6093 4.82979L21.2455 3.47421C21.2183 3.37307 21.1716 3.27827 21.1078 3.19521C21.044 3.11215 20.9645 3.04246 20.8738 2.99013C20.7831 2.9378 20.683 2.90385 20.5792 2.89021C20.4753 2.87658 20.3698 2.88353 20.2687 2.91066L8.91089 5.95891C8.70665 6.01373 8.53255 6.14743 8.4269 6.33061C8.32124 6.51379 8.29267 6.73143 8.34748 6.93567L8.71134 8.29139L7.35562 8.65525C7.25447 8.68236 7.15965 8.72913 7.07659 8.7929C6.99353 8.85667 6.92384 8.93618 6.87152 9.02689C6.8192 9.1176 6.78526 9.21773 6.77165 9.32156C6.75804 9.42539 6.76503 9.53088 6.79221 9.63201L11.0927 25.6564C11.1476 25.8606 11.2813 26.0346 11.4645 26.1403C11.6476 26.2459 11.8653 26.2745 12.0695 26.2198L13.4252 25.8559L13.7891 27.2116C13.8162 27.3128 13.863 27.4076 13.9268 27.4906C13.9905 27.5737 14.07 27.6434 14.1607 27.6957C14.2514 27.748 14.3516 27.7819 14.4554 27.7956C14.5592 27.8092 14.6647 27.8022 14.7658 27.7751L26.1236 24.7269C26.2248 24.6998 26.3196 24.653 26.4027 24.5893C26.4857 24.5255 26.5554 24.4459 26.6077 24.3552C26.6601 24.2645 26.694 24.1644 26.7076 24.0605C26.7212 23.9567 26.7142 23.8512 26.687 23.75L26.3232 22.3943L27.6789 22.0306C27.7801 22.0035 27.8749 21.9567 27.958 21.8929C28.041 21.8291 28.1107 21.7496 28.163 21.6589C28.2153 21.5682 28.2493 21.468 28.2629 21.3642C28.2765 21.2603 28.2695 21.1548 28.2423 21.0537L23.9418 5.02949Z"
            fill="#FF5A7B" />
        <path
            d="M15.7737 10.771C15.8009 10.674 15.8529 10.5859 15.9245 10.5151C15.9961 10.4444 16.0849 10.3934 16.1821 10.3673C16.2793 10.3412 16.3817 10.3409 16.4791 10.3662C16.5765 10.3916 16.6657 10.4419 16.7378 10.5121L18.5566 12.2835L21.0934 12.1821C21.194 12.178 21.294 12.2002 21.3834 12.2464C21.4729 12.2926 21.5487 12.3614 21.6036 12.4458C21.6585 12.5302 21.6905 12.6275 21.6964 12.728C21.7023 12.8285 21.682 12.9288 21.6374 13.0191L20.5147 15.2962L21.3953 17.6776C21.4301 17.772 21.4398 17.8739 21.4234 17.9732C21.407 18.0725 21.3651 18.1659 21.3018 18.2441C21.2385 18.3224 21.1559 18.3828 21.0622 18.4195C20.9685 18.4563 20.8669 18.468 20.7672 18.4537L18.2546 18.0895L16.262 19.6628C16.183 19.7252 16.0891 19.766 15.9896 19.7811C15.89 19.7963 15.7883 19.7853 15.6942 19.7493C15.6002 19.7132 15.5172 19.6533 15.4533 19.5755C15.3894 19.4977 15.3469 19.4046 15.3298 19.3054L14.8996 16.8033L12.7877 15.3942C12.704 15.3383 12.6362 15.2616 12.591 15.1717C12.5459 15.0817 12.5249 14.9815 12.5301 14.881C12.5353 14.7805 12.5666 14.683 12.6208 14.5982C12.6751 14.5134 12.7504 14.4442 12.8395 14.3973L15.0863 13.2149L15.7737 10.771Z"
            fill="#FF5A7B" />
        <path
            d="M23.7081 1.75773C23.3687 0.492939 22.0664 -0.258225 20.8016 0.081173L4.95791 4.33336C3.69326 4.67276 2.94209 5.9751 3.28149 7.23975L9.02536 28.6417C9.36476 29.9063 10.6671 30.6575 11.9318 30.3181L27.7754 26.066C29.0401 25.7267 29.7914 24.4243 29.4518 23.1597L23.7081 1.75773Z"
            fill="#E5FF65" />
        <path opacity="0.3"
            d="M22.7914 4.88587C22.7643 4.78472 22.7175 4.68991 22.6537 4.60687C22.5899 4.52382 22.5104 4.45416 22.4196 4.40188C22.329 4.34955 22.2289 4.31559 22.125 4.30197C22.0212 4.28834 21.9158 4.2953 21.8147 4.32246L20.4589 4.68618L20.0951 3.3306C20.0679 3.22946 20.0212 3.13465 19.9574 3.05159C19.8936 2.96853 19.8141 2.89885 19.7234 2.84652C19.6327 2.79418 19.5326 2.76023 19.4288 2.7466C19.3249 2.73296 19.2195 2.73991 19.1183 2.76705L7.7605 5.8153C7.55626 5.87011 7.38216 6.00382 7.27651 6.18699C7.17085 6.37017 7.14228 6.58782 7.19709 6.79206L7.56095 8.14778L6.20522 8.51163C6.10408 8.53874 6.00926 8.58552 5.9262 8.64928C5.84313 8.71305 5.77345 8.79256 5.72113 8.88327C5.66881 8.97398 5.63487 9.07411 5.62126 9.17794C5.60765 9.28177 5.61464 9.38726 5.64182 9.48839L9.94234 25.5128C9.99723 25.7169 10.1309 25.891 10.3141 25.9966C10.4973 26.1023 10.7149 26.1309 10.9191 26.0762L12.2748 25.7123L12.6387 27.068C12.6658 27.1692 12.7126 27.264 12.7764 27.347C12.8401 27.4301 12.9196 27.4998 13.0103 27.5521C13.101 27.6044 13.2012 27.6383 13.305 27.652C13.4088 27.6656 13.5143 27.6586 13.6154 27.6314L24.9733 24.5833C25.0744 24.5562 25.1692 24.5094 25.2523 24.4456C25.3354 24.3819 25.405 24.3023 25.4574 24.2116C25.5097 24.1209 25.5436 24.0208 25.5572 23.9169C25.5708 23.8131 25.5638 23.7076 25.5367 23.6064L25.1728 22.2507L26.5285 21.887C26.6297 21.8599 26.7245 21.8131 26.8076 21.7493C26.8906 21.6855 26.9603 21.606 27.0126 21.5153C27.065 21.4246 27.0989 21.3244 27.1125 21.2206C27.1261 21.1167 27.1191 21.0112 27.0919 20.9101L22.7914 4.88587Z"
            fill="white" />
        <path
            d="M14.6223 10.6273C14.6496 10.5304 14.7015 10.4423 14.7731 10.3715C14.8447 10.3007 14.9335 10.2498 15.0307 10.2237C15.128 10.1976 15.2303 10.1972 15.3277 10.2226C15.4251 10.248 15.5143 10.2983 15.5864 10.3685L17.4053 12.1399L19.942 12.0385C20.0427 12.0344 20.1426 12.0566 20.232 12.1028C20.3215 12.149 20.3974 12.2177 20.4523 12.3022C20.5071 12.3866 20.5391 12.4838 20.545 12.5844C20.5509 12.6849 20.5306 12.7852 20.486 12.8755L19.3634 15.1526L20.2439 17.534C20.2787 17.6284 20.2884 17.7303 20.272 17.8296C20.2557 17.9289 20.2138 18.0223 20.1504 18.1005C20.0871 18.1787 20.0046 18.2392 19.9109 18.2759C19.8171 18.3127 19.7155 18.3244 19.6159 18.3101L17.1033 17.9459L15.1106 19.5192C15.0316 19.5816 14.9377 19.6223 14.8382 19.6375C14.7387 19.6527 14.6369 19.6417 14.5429 19.6056C14.4489 19.5696 14.3658 19.5097 14.302 19.4319C14.2381 19.3541 14.1955 19.261 14.1785 19.1618L13.7483 16.6597L11.6364 15.2506C11.5526 15.1947 11.4848 15.118 11.4397 15.0281C11.3945 14.9381 11.3735 14.8379 11.3787 14.7374C11.3839 14.6369 11.4152 14.5394 11.4695 14.4546C11.5237 14.3698 11.5991 14.3006 11.6882 14.2537L13.9349 13.0713L14.6223 10.6273Z"
            fill="#A1BF0D" />
    </g>
    <defs>
        <clipPath id="clip0_1122_25142">
            <rect width="32" height="32" fill="white" />
        </clipPath>
    </defs>
</svg>