<svg xmlns="http://www.w3.org/2000/svg" width="20" height="20" viewBox="0 0 20 20" fill="none">
    <g opacity="0.5">
        <path
            d="M9.77272 1.06896L9.82258 1.11127L12.0891 3.37781C12.1516 3.44041 12.1901 3.52293 12.198 3.61101C12.2058 3.6991 12.1826 3.78714 12.1322 3.85982L12.0891 3.91271L9.82258 6.17925C9.77367 6.22835 9.71221 6.26305 9.6449 6.27955C9.5776 6.29605 9.50705 6.29373 9.44098 6.27282C9.37491 6.25192 9.31586 6.21324 9.2703 6.16102C9.22474 6.10881 9.19442 6.04506 9.18266 5.97677L9.17737 5.9118V4.4121C7.86588 4.49448 6.61696 5.00203 5.6198 5.85787C4.62264 6.71372 3.93156 7.87122 3.65126 9.15506C3.37095 10.4389 3.51669 11.7791 4.06639 12.9727C4.6161 14.1663 5.53981 15.1482 6.69763 15.7697C7.85544 16.3912 9.18426 16.6184 10.4828 16.417C11.7813 16.2155 12.9789 15.5964 13.894 14.6533C14.8091 13.7102 15.3919 12.4946 15.5541 11.1906C15.7164 9.88654 15.4492 8.56517 14.7931 7.4266C14.6945 7.25317 14.6685 7.04777 14.7208 6.85523C14.773 6.6627 14.8993 6.49865 15.0721 6.3989C15.2449 6.29914 15.4501 6.27177 15.643 6.32277C15.8359 6.37376 16.0007 6.49898 16.1016 6.67109C16.7642 7.81827 17.1122 9.12008 17.1103 10.4449C17.1103 14.6176 13.7278 18 9.55513 18C5.38243 18 2 14.6176 2 10.4449C2 6.3991 5.18071 3.096 9.17737 2.89881V1.37872C9.17719 1.30944 9.19607 1.24144 9.23195 1.18217C9.26782 1.12289 9.3193 1.07463 9.38077 1.04265C9.44223 1.01067 9.5113 0.996208 9.58043 1.00085C9.64956 1.00549 9.71608 1.02905 9.77272 1.06896Z"
            fill="white" />
    </g>
</svg>