<svg width="24" height="24" viewBox="0 0 24 24" fill="none" xmlns="http://www.w3.org/2000/svg">
    <path
        d="M19.125 17.025L22.35 20.25C22.65 20.55 22.65 21 22.35 21.3L21.2999 22.35C21 22.65 20.55 22.65 20.25 22.35L17.1 19.2C15.45 20.4 13.5 21.075 11.325 21.075C5.92495 21.075 1.57495 16.725 1.57495 11.325C1.57495 5.92501 5.92495 1.57501 11.325 1.57501C16.725 1.57501 21.075 5.92501 21.075 11.325C21 13.425 20.325 15.375 19.125 17.025ZM11.25 19.5C15.825 19.5 19.5 15.825 19.5 11.25C19.5 6.67501 15.825 3.00001 11.25 3.00001C6.67495 3.00001 2.99995 6.67501 2.99995 11.25C2.99995 15.825 6.67495 19.5 11.25 19.5Z"
        fill="white" fill-opacity="0.8" />
</svg>