<svg width="16" height="16" viewBox="0 0 16 16" fill="none" xmlns="http://www.w3.org/2000/svg">
    <path
        d="M11.0665 13.4001H4.93317C3.6665 13.4001 2.6665 12.4001 2.6665 11.1334V4.93341C2.6665 3.73341 3.6665 2.66675 4.93317 2.66675H8.0665C8.33317 2.66675 8.53317 2.86675 8.53317 3.13341C8.53317 3.40008 8.33317 3.60008 8.0665 3.60008H4.93317C4.13317 3.60008 3.53317 4.20008 3.53317 5.00008V11.2001C3.53317 12.0001 4.13317 12.6001 4.93317 12.6001H11.1332C11.9332 12.6001 12.5332 12.0001 12.5332 11.2001V8.26675C12.5332 8.00008 12.7332 7.80008 12.9998 7.80008C13.2665 7.80008 13.4665 8.00008 13.4665 8.26675V11.2001C13.3332 12.4001 12.3332 13.4001 11.0665 13.4001ZM12.7998 3.60008H10.8665C10.5998 3.60008 10.3998 3.40008 10.3998 3.13341C10.3998 2.86675 10.5998 2.66675 10.8665 2.66675H12.7998C13.0665 2.66675 13.2665 2.86675 13.2665 3.13341C13.2665 3.40008 13.1332 3.60008 12.7998 3.60008Z"
        fill="currentColor" />
    <path
        d="M12.8666 5.5999C12.5999 5.5999 12.3999 5.3999 12.3999 5.13323V3.1999C12.3999 2.93323 12.5999 2.73323 12.8666 2.73323C13.1332 2.66657 13.3332 2.86657 13.3332 3.1999V5.13323C13.3332 5.3999 13.1999 5.5999 12.8666 5.5999Z"
        fill="currentColor" />
    <path
        d="M7.53337 9.0001C7.40003 9.0001 7.2667 8.93343 7.2667 8.86676C7.0667 8.66676 7.0667 8.4001 7.2667 8.2001L12.3334 3.0001C12.5334 2.8001 12.8 2.8001 13 3.0001C13.2 3.2001 13.2 3.46676 13 3.66676L7.93337 8.86676C7.73337 9.0001 7.6667 9.0001 7.53337 9.0001Z"
        fill="currentColor" />
</svg>