<svg width="12" height="12" viewBox="0 0 12 12" fill="none" xmlns="http://www.w3.org/2000/svg">
    <circle cx="6" cy="6" r="6" fill="white" />
    <path
        d="M5.99875 6.51276C6.80047 6.51276 7.27624 7.4089 6.82709 8.07299L6.32136 8.82074L5.09331 8.82074L5.09331 6.51276L5.99875 6.51276Z"
        fill="url(#paint0_linear_3465_25339)" />
    <path
        d="M3.42992 3.12513H8.32468C9.00186 3.12513 9.41678 3.86766 9.06187 4.44438C8.7468 4.95638 8.18866 5.26826 7.58749 5.26826H3.44433L3.42992 3.12513Z"
        fill="black" />
    <path
        d="M3.43058 3.12384L6.49417 8.56538L6.38099 8.73138C5.85197 9.50729 4.70002 9.4835 4.20348 8.68642L2.44504 5.86366C2.24855 5.54824 2.24317 5.14988 2.43107 4.82928L3.43058 3.12384Z"
        fill="black" />
    <defs>
        <linearGradient id="paint0_linear_3465_25339" x1="7.38794" y1="6.51276" x2="5.29976" y2="8.82074"
            gradientUnits="userSpaceOnUse">
            <stop />
            <stop offset="1" stop-color="#777373" />
        </linearGradient>
    </defs>
</svg>