<svg width="36" height="36" viewBox="0 0 36 36" fill="none" xmlns="http://www.w3.org/2000/svg">
    <rect x="1.5" y="1.5" width="33" height="33" rx="7.5" fill="#24262E" stroke="#272B33" />
    <path
        d="M19.6182 24.54C19.6182 24.88 19.8231 25.1867 20.1374 25.317C20.4514 25.4473 20.8133 25.3751 21.054 25.1348L24.9044 21.284C25.0319 21.1566 25.0319 20.9501 24.9044 20.8226L24.1763 20.0945C24.0488 19.967 23.8422 19.967 23.7149 20.0945L21.3 22.5095L21.3 10.3224C21.3 10.1444 21.1558 10 20.9776 10L19.9404 10C19.7625 10 19.618 10.1443 19.618 10.3224L19.618 24.54L19.6182 24.54ZM16.582 25.1905L16.582 10.977C16.582 10.6369 16.3771 10.3303 16.0628 10.2C15.7487 10.0697 15.3869 10.1418 15.1462 10.3821L11.2956 14.2329C11.1681 14.3604 11.1681 14.5668 11.2956 14.6943L12.0237 15.4224C12.1512 15.5499 12.3578 15.5499 12.4851 15.4224L14.9001 13.0074L14.9001 25.1905C14.9001 25.3708 15.0463 25.5168 15.2264 25.5168L16.2556 25.5168C16.4358 25.5168 16.582 25.3708 16.582 25.1905Z"
        fill="#E5FF65" />
</svg>