<svg width="24" height="25" viewBox="0 0 24 25" fill="none" xmlns="http://www.w3.org/2000/svg">
    <path
        d="M24 5.06025C23.1003 5.46031 22.1457 5.72323 21.168 5.84025C22.1948 5.22451 22.9625 4.25632 23.328 3.11625C22.3598 3.69147 21.3007 4.0973 20.196 4.31625C19.5192 3.60006 18.643 3.10358 17.6808 2.89112C16.7187 2.67866 15.7149 2.76001 14.7994 3.12462C13.884 3.48924 13.0992 4.12032 12.5466 4.93613C11.9939 5.75194 11.699 6.71489 11.7 7.70025C11.7016 8.07605 11.7459 8.45044 11.832 8.81625C9.87248 8.71672 7.95585 8.20583 6.20677 7.31682C4.45769 6.42781 2.91533 5.18058 1.68 3.65625C1.24058 4.40601 1.00864 5.25921 1.008 6.12825C0.986206 6.9305 1.16591 7.7254 1.53068 8.44026C1.89544 9.15512 2.43363 9.76711 3.096 10.2202C2.28 10.1962 0.756 9.98025 0.756 9.60825V9.66825C0.786328 10.8101 1.20452 11.9075 1.94174 12.78C2.67895 13.6524 3.69125 14.2478 4.812 14.4683C4.42134 14.5778 4.01772 14.6343 3.612 14.6362C3.30999 14.6374 3.00859 14.6092 2.712 14.5522C3.02887 15.5308 3.64307 16.3862 4.46904 16.9992C5.295 17.6122 6.2916 17.9524 7.32 17.9722C5.57887 19.3533 3.42237 20.106 1.2 20.1082C0.798938 20.1077 0.398254 20.0836 0 20.0362C2.25204 21.4812 4.87226 22.2477 7.548 22.2442C9.39461 22.2634 11.2266 21.9146 12.9369 21.2183C14.6473 20.5219 16.2019 19.4918 17.5099 18.1883C18.818 16.8847 19.8533 15.3336 20.5556 13.6256C21.2578 11.9177 21.6128 10.0869 21.6 8.24025V7.60425C22.5431 6.90369 23.3555 6.04254 24 5.06025Z"
        fill="currentColor" />
</svg>