<svg width="16" height="16" viewBox="0 0 16 16" fill="none" xmlns="http://www.w3.org/2000/svg">
    <path
        d="M16 3.03984C15.4002 3.30655 14.7638 3.48183 14.112 3.55984C14.7965 3.14935 15.3083 2.50389 15.552 1.74384C14.9066 2.12732 14.2004 2.39787 13.464 2.54384C13.0128 2.06638 12.4287 1.7354 11.7872 1.59376C11.1458 1.45211 10.4766 1.50634 9.86629 1.74942C9.25601 1.9925 8.73278 2.41322 8.36437 2.9571C7.99597 3.50097 7.79935 4.14294 7.8 4.79984C7.8011 5.05037 7.83062 5.29997 7.888 5.54384C6.58165 5.47749 5.3039 5.1369 4.13785 4.54422C2.9718 3.95155 1.94355 3.12006 1.12 2.10384C0.827054 2.60368 0.672427 3.17248 0.672 3.75184C0.65747 4.28667 0.777273 4.81661 1.02045 5.29318C1.26363 5.76975 1.62242 6.17775 2.064 6.47984C1.52 6.46384 0.504 6.31984 0.504 6.07184V6.11184C0.524218 6.87305 0.803014 7.60469 1.29449 8.18632C1.78597 8.76795 2.46084 9.1649 3.208 9.31184C2.94756 9.38488 2.67848 9.42255 2.408 9.42384C2.20666 9.42458 2.00572 9.40582 1.808 9.36784C2.01925 10.0202 2.42872 10.5905 2.97936 10.9991C3.53 11.4078 4.1944 11.6346 4.88 11.6478C3.71925 12.5686 2.28158 13.0703 0.8 13.0718C0.532626 13.0715 0.265503 13.0554 0 13.0238C1.50136 13.9871 3.24818 14.4981 5.032 14.4958C6.26308 14.5086 7.48437 14.2761 8.62462 13.8118C9.76488 13.3476 10.8013 12.6609 11.6733 11.7918C12.5453 10.9228 13.2356 9.88876 13.7037 8.7501C14.1719 7.61144 14.4086 6.39095 14.4 5.15984V4.73584C15.0287 4.2688 15.5703 3.6947 16 3.03984Z"
        fill="currentColor" />
</svg>