<svg width="16" height="17" viewBox="0 0 16 17" fill="none" xmlns="http://www.w3.org/2000/svg">
<g id="Frame">
<path id="Vector" d="M6.96448 15.4853C6.83885 15.5753 6.69482 15.6364 6.54275 15.6641C6.39068 15.6918 6.23437 15.6854 6.08507 15.6454C5.93576 15.6054 5.79719 15.5328 5.67934 15.4327C5.56149 15.3327 5.46728 15.2078 5.40352 15.067C5.25024 14.7288 4.99484 14.447 4.6732 14.2613C4.35156 14.0756 3.97983 13.9954 3.61023 14.0318C3.45644 14.047 3.3012 14.0278 3.15569 13.9757C3.01019 13.9236 2.87805 13.8399 2.76879 13.7306C2.65953 13.6214 2.57586 13.4892 2.52382 13.3437C2.47178 13.1982 2.45266 13.0429 2.46783 12.8891C2.50426 12.5195 2.42396 12.1477 2.23823 11.8261C2.05249 11.5044 1.77066 11.2491 1.43231 11.0958C1.29151 11.0321 1.16661 10.9379 1.0666 10.82C0.966593 10.7022 0.893972 10.5636 0.853968 10.4143C0.813965 10.265 0.807576 10.1087 0.835261 9.9566C0.862947 9.80453 0.924018 9.6605 1.01408 9.53487C1.23037 9.23303 1.34668 8.87102 1.34668 8.49968C1.34668 8.12833 1.23037 7.76632 1.01408 7.46448C0.924018 7.33885 0.862947 7.19482 0.835261 7.04275C0.807576 6.89068 0.813965 6.73437 0.853968 6.58507C0.893972 6.43576 0.966593 6.29719 1.0666 6.17934C1.16661 6.06149 1.29151 5.96728 1.43231 5.90352C1.7706 5.75024 2.05237 5.49484 2.23804 5.1732C2.42371 4.85156 2.50396 4.47983 2.46751 4.11023C2.45238 3.95644 2.47155 3.8012 2.52363 3.65569C2.57571 3.51019 2.65941 3.37805 2.76871 3.26879C2.878 3.15953 3.01016 3.07586 3.15568 3.02382C3.30119 2.97178 3.45644 2.95266 3.61023 2.96783C3.97987 3.00426 4.35162 2.92396 4.67327 2.73823C4.99491 2.55249 5.25029 2.27066 5.40352 1.93231C5.46728 1.79151 5.56149 1.66661 5.67934 1.5666C5.79719 1.46659 5.93576 1.39397 6.08507 1.35397C6.23437 1.31396 6.39068 1.30758 6.54275 1.33526C6.69482 1.36295 6.83885 1.42402 6.96448 1.51408C7.26632 1.73037 7.62833 1.84668 7.99968 1.84668C8.37102 1.84668 8.73303 1.73037 9.03487 1.51408C9.1605 1.42402 9.30453 1.36295 9.4566 1.33526C9.60867 1.30758 9.76498 1.31396 9.91428 1.35397C10.0636 1.39397 10.2022 1.46659 10.32 1.5666C10.4379 1.66661 10.5321 1.79151 10.5958 1.93231C10.7491 2.2706 11.0045 2.55237 11.3261 2.73804C11.6478 2.92371 12.0195 3.00396 12.3891 2.96751C12.5429 2.95238 12.6982 2.97155 12.8437 3.02363C12.9892 3.07571 13.1213 3.15941 13.2306 3.26871C13.3398 3.378 13.4235 3.51016 13.4755 3.65568C13.5276 3.80119 13.5467 3.95644 13.5315 4.11023C13.4951 4.47987 13.5754 4.85162 13.7611 5.17327C13.9469 5.49491 14.2287 5.75029 14.567 5.90352C14.7078 5.96728 14.8327 6.06149 14.9327 6.17934C15.0328 6.29719 15.1054 6.43576 15.1454 6.58507C15.1854 6.73437 15.1918 6.89068 15.1641 7.04275C15.1364 7.19482 15.0753 7.33885 14.9853 7.46448C14.769 7.76632 14.6527 8.12833 14.6527 8.49968C14.6527 8.87102 14.769 9.23303 14.9853 9.53487C15.0753 9.6605 15.1364 9.80453 15.1641 9.9566C15.1918 10.1087 15.1854 10.265 15.1454 10.4143C15.1054 10.5636 15.0328 10.7022 14.9327 10.82C14.8327 10.9379 14.7078 11.0321 14.567 11.0958C14.2288 11.2491 13.947 11.5045 13.7613 11.8261C13.5756 12.1478 13.4954 12.5195 13.5318 12.8891C13.547 13.0429 13.5278 13.1982 13.4757 13.3437C13.4236 13.4892 13.3399 13.6213 13.2306 13.7306C13.1214 13.8398 12.9892 13.9235 12.8437 13.9755C12.6982 14.0276 12.5429 14.0467 12.3891 14.0315C12.0195 13.9951 11.6477 14.0754 11.3261 14.2611C11.0044 14.4469 10.7491 14.7287 10.5958 15.067C10.5321 15.2078 10.4379 15.3327 10.32 15.4327C10.2022 15.5328 10.0636 15.6054 9.91428 15.6454C9.76498 15.6854 9.60867 15.6918 9.4566 15.6641C9.30453 15.6364 9.1605 15.5753 9.03487 15.4853C8.73303 15.269 8.37102 15.1527 7.99968 15.1527C7.62833 15.1527 7.26632 15.269 6.96448 15.4853Z" fill="#66BFFF"/>
<path id="Vector_2" d="M11.1481 6.2955C11.2351 6.20821 11.3523 6.15772 11.4755 6.15446C11.5986 6.15121 11.7183 6.19545 11.8098 6.27803C11.9013 6.3606 11.9575 6.47518 11.9668 6.59805C11.9761 6.72091 11.9378 6.84265 11.8598 6.93806L11.8268 6.97454L7.75387 11.0475C7.66987 11.1315 7.55771 11.1813 7.43908 11.1874C7.32046 11.1935 7.20378 11.1554 7.11163 11.0805L7.07515 11.0475L4.81243 8.7851C4.72503 8.69818 4.67442 8.58098 4.67108 8.45776C4.66773 8.33455 4.71192 8.21477 4.79448 8.12325C4.87703 8.03172 4.99164 7.97546 5.11454 7.96613C5.23745 7.95679 5.35923 7.99509 5.45467 8.0731L5.49115 8.10606L7.41435 10.0289L11.1481 6.29582V6.2955Z" fill="white"/>
</g>
</svg>
